<?xml version="1.0" encoding="UTF-8"?>
<svg width="145px" height="151px" viewBox="0 0 145 151" version="1.1" xmlns="http://www.w3.org/2000/svg" xmlns:xlink="http://www.w3.org/1999/xlink">
    <title>Analytics</title>
    <defs>
        <path d="M30.3381215,19.3525176 C28.2008594,19.7685889 26.4198077,22.3690347 24.9949662,27.1538549 C23.5701248,31.9386752 22.8131778,37.0771561 22.7241252,42.5692976 C22.6350726,48.0614391 23.3474933,53.0750986 24.8613874,57.610276 C26.3752814,62.1454535 28.5570698,64.4130422 31.4067526,64.4130422 C32.1191733,64.4130422 32.9651729,64.2050066 33.9447514,63.7889352 L33.1305563,54.5164885 L39.4914555,57.4884266 C40.2038762,53.9934274 40.3565378,44.0255472 40.08938,40.197691 C39.8222222,36.3698348 39.332433,32.8540321 38.6200123,29.6502829 C37.9075916,26.4465337 36.8166974,23.8668915 35.3473297,21.9113562 C33.8779619,19.955821 32.2082259,19.1028748 30.3381215,19.3525176 Z M47.8369552,91 L42.360221,80.7646454 C39.4214856,81.8464308 36.2601187,82.5537521 32.8761203,82.8866091 C24.4161244,83.2194662 16.9134438,79.8284849 10.3680786,72.7136652 C3.82271332,65.5988455 0.371925517,56.4660799 0.0157151627,45.3153683 C-0.0733374258,41.4042979 0.216083487,37.3892096 0.883977901,33.2701034 C1.55187231,29.1509973 2.70955596,25.0734983 4.35702885,21.0376064 C6.00450174,17.0017146 8.03044813,13.4235012 10.434868,10.3029662 C12.8392879,7.18243127 15.8893391,4.66519975 19.5850215,2.75127165 C23.2807039,0.837343545 27.3548598,-0.0780133737 31.8074893,0.00520089158 C35.8148557,0.0884151569 39.6663802,1.02457564 43.3620626,2.81368235 C47.057745,4.60278905 50.374954,7.18243127 53.3136894,10.552609 C56.2524248,13.9227868 58.5677921,18.37475 60.2597913,23.9084986 C61.9517905,29.4422472 62.7087375,35.6625136 62.5306323,42.5692976 C62.5306323,52.1389381 59.8463328,61.8868949 55.3937034,69.3761788 L64,76.3958964 L47.8369552,91 Z" id="path-1"></path>
        <filter x="-10.9%" y="-5.5%" width="121.9%" height="115.4%" filterUnits="objectBoundingBox" id="filter-2">
            <feOffset dx="0" dy="2" in="SourceAlpha" result="shadowOffsetOuter1"></feOffset>
            <feGaussianBlur stdDeviation="2" in="shadowOffsetOuter1" result="shadowBlurOuter1"></feGaussianBlur>
            <feColorMatrix values="0 0 0 0 0   0 0 0 0 0   0 0 0 0 0  0 0 0 0.5 0" type="matrix" in="shadowBlurOuter1"></feColorMatrix>
        </filter>
    </defs>
    <g id="Icons" stroke="none" stroke-width="1" fill="none" fill-rule="evenodd">
        <g id="Artboard" transform="translate(-319.000000, -40.000000)">
            <g id="Analytics" transform="translate(319.000000, 40.000000)">
                <g id="QLogo-Copy">
                    <rect id="Rectangle" fill="#131022" x="0" y="0" width="145" height="151"></rect>
                    <path d="M76.5,8 L98.7450843,52.4901686 L143,141 C110.42923,126.390152 86.3760381,119.085227 70.8404255,119.085227 C63.1774132,119.085227 42.8972714,126.390152 10,141 L76.5,8 Z" id="Triangle" fill="#C06B2E" transform="translate(76.500000, 74.500000) rotate(90.000000) translate(-76.500000, -74.500000) "></path>
                    <g id="quiver" transform="translate(35.000000, 25.000000)" fill-rule="nonzero">
                        <g id="Shape">
                            <use fill="black" fill-opacity="1" filter="url(#filter-2)" xlink:href="#path-1"></use>
                            <use fill="#E7E7E7" xlink:href="#path-1"></use>
                        </g>
                    </g>
                </g>
                <polyline id="Path-2" stroke="#9113D5" stroke-width="6" points="77 141 99 122 118 131 136 116"></polyline>
            </g>
        </g>
    </g>
</svg>